<?xml version="1.0" standalone="no"?>
<!DOCTYPE svg PUBLIC "-//W3C//DTD SVG 20010904//EN"
 "http://www.w3.org/TR/2001/REC-SVG-20010904/DTD/svg10.dtd">
<svg version="1.0" xmlns="http://www.w3.org/2000/svg"
 width="831.000000pt" height="831.000000pt" viewBox="0 0 831.000000 831.000000"
 preserveAspectRatio="xMidYMid meet">
<metadata>
Created by potrace 1.14, written by Peter Selinger 2001-2017
</metadata>
<g transform="translate(0.000000,831.000000) scale(0.100000,-0.100000)"
fill="#000000" stroke="none">
<path d="M0 4155 l0 -4155 4155 0 4155 0 0 4155 0 4155 -4155 0 -4155 0 0
-4155z m6262 1668 c17 -15 18 -55 18 -847 0 -774 -1 -833 -18 -857 -9 -14 -78
-99 -152 -188 -74 -90 -174 -211 -223 -270 -75 -91 -682 -866 -920 -1174 -43
-56 -83 -105 -90 -109 -7 -4 -330 -8 -718 -8 -659 0 -708 1 -727 18 -11 9 -73
85 -138 167 -65 83 -204 258 -309 390 -105 132 -267 337 -360 455 -93 118
-263 334 -378 479 l-209 264 1 166 c2 274 20 1185 27 1339 5 108 10 146 21
158 13 12 18 13 34 2 15 -11 329 -401 879 -1094 548 -690 1093 -1372 1138
-1424 25 -29 33 -33 49 -24 36 22 686 836 1163 1459 30 39 152 195 270 345
118 150 242 308 275 351 232 299 330 419 343 419 3 0 14 -7 24 -17z"/>
</g>
</svg>
